<svg id="visual" viewBox="0 0 960 540" width="960" height="540" xmlns="http://www.w3.org/2000/svg" xmlns:xlink="http://www.w3.org/1999/xlink" version="1.1"><rect x="0" y="0" width="960" height="540" fill="#001122"></rect><defs><linearGradient id="grad1_0" x1="43.8%" y1="0%" x2="100%" y2="100%"><stop offset="14.444444444444446%" stop-color="#fbae3c" stop-opacity="1"></stop><stop offset="85.55555555555554%" stop-color="#fbae3c" stop-opacity="1"></stop></linearGradient></defs><defs><linearGradient id="grad1_1" x1="43.8%" y1="0%" x2="100%" y2="100%"><stop offset="14.444444444444446%" stop-color="#fbae3c" stop-opacity="1"></stop><stop offset="85.55555555555554%" stop-color="#cd5864" stop-opacity="1"></stop></linearGradient></defs><defs><linearGradient id="grad1_2" x1="43.8%" y1="0%" x2="100%" y2="100%"><stop offset="14.444444444444446%" stop-color="#5d3560" stop-opacity="1"></stop><stop offset="85.55555555555554%" stop-color="#cd5864" stop-opacity="1"></stop></linearGradient></defs><defs><linearGradient id="grad1_3" x1="43.8%" y1="0%" x2="100%" y2="100%"><stop offset="14.444444444444446%" stop-color="#5d3560" stop-opacity="1"></stop><stop offset="85.55555555555554%" stop-color="#001122" stop-opacity="1"></stop></linearGradient></defs><defs><linearGradient id="grad2_0" x1="0%" y1="0%" x2="56.3%" y2="100%"><stop offset="14.444444444444446%" stop-color="#fbae3c" stop-opacity="1"></stop><stop offset="85.55555555555554%" stop-color="#fbae3c" stop-opacity="1"></stop></linearGradient></defs><defs><linearGradient id="grad2_1" x1="0%" y1="0%" x2="56.3%" y2="100%"><stop offset="14.444444444444446%" stop-color="#cd5864" stop-opacity="1"></stop><stop offset="85.55555555555554%" stop-color="#fbae3c" stop-opacity="1"></stop></linearGradient></defs><defs><linearGradient id="grad2_2" x1="0%" y1="0%" x2="56.3%" y2="100%"><stop offset="14.444444444444446%" stop-color="#cd5864" stop-opacity="1"></stop><stop offset="85.55555555555554%" stop-color="#5d3560" stop-opacity="1"></stop></linearGradient></defs><defs><linearGradient id="grad2_3" x1="0%" y1="0%" x2="56.3%" y2="100%"><stop offset="14.444444444444446%" stop-color="#001122" stop-opacity="1"></stop><stop offset="85.55555555555554%" stop-color="#5d3560" stop-opacity="1"></stop></linearGradient></defs><g transform="translate(960, 0)"><path d="M0 351C-66.3 344.7 -132.6 338.3 -175.5 304C-218.4 269.6 -237.9 207.3 -263.3 152C-288.6 96.7 -319.8 48.3 -351 0L0 0Z" fill="#272646"></path><path d="M0 263.3C-49.7 258.5 -99.4 253.7 -131.6 228C-163.8 202.2 -178.4 155.5 -197.5 114C-216.5 72.5 -239.9 36.3 -263.2 0L0 0Z" fill="#98426a"></path><path d="M0 175.5C-33.1 172.3 -66.3 169.2 -87.7 152C-109.2 134.8 -119 103.7 -131.6 76C-144.3 48.3 -159.9 24.2 -175.5 0L0 0Z" fill="#f07d51"></path><path d="M0 87.8C-16.6 86.2 -33.1 84.6 -43.9 76C-54.6 67.4 -59.5 51.8 -65.8 38C-72.2 24.2 -80 12.1 -87.7 0L0 0Z" fill="#fbae3c"></path></g><g transform="translate(0, 540)"><path d="M0 -351C48.6 -320.3 97.2 -289.5 152.5 -264.1C207.8 -238.7 269.8 -218.6 304 -175.5C338.2 -132.4 344.6 -66.2 351 0L0 0Z" fill="#272646"></path><path d="M0 -263.2C36.5 -240.2 72.9 -217.2 114.4 -198.1C155.8 -179 202.3 -164 228 -131.6C253.6 -99.3 258.4 -49.6 263.3 0L0 0Z" fill="#98426a"></path><path d="M0 -175.5C24.3 -160.1 48.6 -144.8 76.2 -132.1C103.9 -119.4 134.9 -109.3 152 -87.8C169.1 -66.2 172.3 -33.1 175.5 0L0 0Z" fill="#f07d51"></path><path d="M0 -87.7C12.2 -80.1 24.3 -72.4 38.1 -66C51.9 -59.7 67.4 -54.7 76 -43.9C84.5 -33.1 86.1 -16.5 87.8 0L0 0Z" fill="#fbae3c"></path></g></svg>