<svg id="visual" viewBox="0 0 1920 1080" width="1920" height="1080" xmlns="http://www.w3.org/2000/svg" xmlns:xlink="http://www.w3.org/1999/xlink" version="1.1"><g stroke-width="1" stroke-linejoin="bevel"><path d="M901.3 560L837.3 668L1021.7 768Z" fill="#fafafa" stroke="#fafafa"></path><path d="M837.3 668L892.3 834L1021.7 768Z" fill="#f4f4f4" stroke="#f4f4f4"></path><path d="M1021.7 768L1157.7 580L901.3 560Z" fill="#f8f8f8" stroke="#f8f8f8"></path><path d="M1157.7 580L938.3 406L901.3 560Z" fill="#eeeeee" stroke="#eeeeee"></path><path d="M901.3 560L596 552L837.3 668Z" fill="#f1f1f1" stroke="#f1f1f1"></path><path d="M1333 731L1208 551L1157.7 580Z" fill="#f3f3f3" stroke="#f3f3f3"></path><path d="M1157.7 580L1071.7 342L938.3 406Z" fill="#f3f3f3" stroke="#f3f3f3"></path><path d="M892.3 834L1137.7 923L1021.7 768Z" fill="#eeeeee" stroke="#eeeeee"></path><path d="M1021.7 768L1211 857L1157.7 580Z" fill="#fbfbfb" stroke="#fbfbfb"></path><path d="M1137.7 923L1211 857L1021.7 768Z" fill="#f4f4f4" stroke="#f4f4f4"></path><path d="M1208 551L1071.7 342L1157.7 580Z" fill="#f1f1f1" stroke="#f1f1f1"></path><path d="M837.3 668L727 933L892.3 834Z" fill="#f3f3f3" stroke="#f3f3f3"></path><path d="M892.3 834L972.7 1080L1137.7 923Z" fill="#f8f8f8" stroke="#f8f8f8"></path><path d="M562 652L727 933L837.3 668Z" fill="#f1f1f1" stroke="#f1f1f1"></path><path d="M652 301L901.3 560L938.3 406Z" fill="#eeeeee" stroke="#eeeeee"></path><path d="M652 301L596 552L901.3 560Z" fill="#f4f4f4" stroke="#f4f4f4"></path><path d="M1211 857L1333 731L1157.7 580Z" fill="#ffffff" stroke="#ffffff"></path><path d="M1208 551L1362 426L1071.7 342Z" fill="#f3f3f3" stroke="#f3f3f3"></path><path d="M596 552L562 652L837.3 668Z" fill="#fafafa" stroke="#fafafa"></path><path d="M1071.7 342L982.7 264L938.3 406Z" fill="#eeeeee" stroke="#eeeeee"></path><path d="M866.3 1080L972.7 1080L892.3 834Z" fill="#f1f1f1" stroke="#f1f1f1"></path><path d="M1468.3 922L1333 731L1211 857Z" fill="#f1f1f1" stroke="#f1f1f1"></path><path d="M727 933L866.3 1080L892.3 834Z" fill="#eeeeee" stroke="#eeeeee"></path><path d="M333.7 395L514.7 588L596 552Z" fill="#eeeeee" stroke="#eeeeee"></path><path d="M596 552L514.7 588L562 652Z" fill="#fdfdfd" stroke="#fdfdfd"></path><path d="M513.7 886L725 1080L727 933Z" fill="#fdfdfd" stroke="#fdfdfd"></path><path d="M1333 731L1362 426L1208 551Z" fill="#ffffff" stroke="#ffffff"></path><path d="M1071.7 342L1321 247L982.7 264Z" fill="#fbfbfb" stroke="#fbfbfb"></path><path d="M489.7 765L727 933L562 652Z" fill="#f6f6f6" stroke="#f6f6f6"></path><path d="M727 933L725 1080L866.3 1080Z" fill="#f4f4f4" stroke="#f4f4f4"></path><path d="M860.3 171L652 301L938.3 406Z" fill="#f8f8f8" stroke="#f8f8f8"></path><path d="M514.7 588L489.7 765L562 652Z" fill="#f1f1f1" stroke="#f1f1f1"></path><path d="M1468.3 922L1437.3 752L1333 731Z" fill="#f4f4f4" stroke="#f4f4f4"></path><path d="M1333 731L1516.3 621L1362 426Z" fill="#f6f6f6" stroke="#f6f6f6"></path><path d="M1258 1080L1211 857L1137.7 923Z" fill="#eeeeee" stroke="#eeeeee"></path><path d="M489.7 765L513.7 886L727 933Z" fill="#eeeeee" stroke="#eeeeee"></path><path d="M982.7 264L860.3 171L938.3 406Z" fill="#fdfdfd" stroke="#fdfdfd"></path><path d="M1042.7 0L860.3 171L982.7 264Z" fill="#f8f8f8" stroke="#f8f8f8"></path><path d="M972.7 1080L1258 1080L1137.7 923Z" fill="#f3f3f3" stroke="#f3f3f3"></path><path d="M1466.3 303L1321 247L1362 426Z" fill="#f1f1f1" stroke="#f1f1f1"></path><path d="M1362 426L1321 247L1071.7 342Z" fill="#f0f0f0" stroke="#f0f0f0"></path><path d="M1646.7 720L1516.3 621L1437.3 752Z" fill="#ffffff" stroke="#ffffff"></path><path d="M1437.3 752L1516.3 621L1333 731Z" fill="#eeeeee" stroke="#eeeeee"></path><path d="M1258 1080L1468.3 922L1211 857Z" fill="#f8f8f8" stroke="#f8f8f8"></path><path d="M860.3 171L597 186L652 301Z" fill="#f4f4f4" stroke="#f4f4f4"></path><path d="M652 301L333.7 395L596 552Z" fill="#fbfbfb" stroke="#fbfbfb"></path><path d="M1516.3 621L1466.3 303L1362 426Z" fill="#f3f3f3" stroke="#f3f3f3"></path><path d="M1466.3 303L1416.3 218L1321 247Z" fill="#eeeeee" stroke="#eeeeee"></path><path d="M1321 247L1042.7 0L982.7 264Z" fill="#f3f3f3" stroke="#f3f3f3"></path><path d="M1314 0L1042.7 0L1321 247Z" fill="#f4f4f4" stroke="#f4f4f4"></path><path d="M860.3 171L782.3 0L597 186Z" fill="#f1f1f1" stroke="#f1f1f1"></path><path d="M597 186L333.7 395L652 301Z" fill="#f6f6f6" stroke="#f6f6f6"></path><path d="M514.7 588L150.3 543L489.7 765Z" fill="#eeeeee" stroke="#eeeeee"></path><path d="M272.3 1080L380.7 1080L513.7 886Z" fill="#fafafa" stroke="#fafafa"></path><path d="M1042.7 0L782.3 0L860.3 171Z" fill="#f6f6f6" stroke="#f6f6f6"></path><path d="M597 186L358.7 178L333.7 395Z" fill="#f4f4f4" stroke="#f4f4f4"></path><path d="M1619.7 908L1646.7 720L1437.3 752Z" fill="#f6f6f6" stroke="#f6f6f6"></path><path d="M1516.3 621L1651.7 597L1466.3 303Z" fill="#f6f6f6" stroke="#f6f6f6"></path><path d="M1646.7 720L1651.7 597L1516.3 621Z" fill="#f0f0f0" stroke="#f0f0f0"></path><path d="M1425.3 0L1314 0L1416.3 218Z" fill="#f8f8f8" stroke="#f8f8f8"></path><path d="M1533.3 1080L1619.7 908L1468.3 922Z" fill="#fdfdfd" stroke="#fdfdfd"></path><path d="M1468.3 922L1619.7 908L1437.3 752Z" fill="#f0f0f0" stroke="#f0f0f0"></path><path d="M1258 1080L1533.3 1080L1468.3 922Z" fill="#eeeeee" stroke="#eeeeee"></path><path d="M272.3 1080L513.7 886L127.3 964Z" fill="#f8f8f8" stroke="#f8f8f8"></path><path d="M513.7 886L380.7 1080L725 1080Z" fill="#f6f6f6" stroke="#f6f6f6"></path><path d="M1641.7 242L1416.3 218L1466.3 303Z" fill="#f4f4f4" stroke="#f4f4f4"></path><path d="M1416.3 218L1314 0L1321 247Z" fill="#f4f4f4" stroke="#f4f4f4"></path><path d="M782.3 0L601 0L597 186Z" fill="#fafafa" stroke="#fafafa"></path><path d="M506.7 0L358.7 178L597 186Z" fill="#f8f8f8" stroke="#f8f8f8"></path><path d="M127.3 964L513.7 886L489.7 765Z" fill="#f1f1f1" stroke="#f1f1f1"></path><path d="M601 0L506.7 0L597 186Z" fill="#fdfdfd" stroke="#fdfdfd"></path><path d="M1752.7 327L1641.7 242L1466.3 303Z" fill="#f4f4f4" stroke="#f4f4f4"></path><path d="M1641.7 242L1425.3 0L1416.3 218Z" fill="#f0f0f0" stroke="#f0f0f0"></path><path d="M238.3 267L150.3 543L333.7 395Z" fill="#eeeeee" stroke="#eeeeee"></path><path d="M333.7 395L150.3 543L514.7 588Z" fill="#f4f4f4" stroke="#f4f4f4"></path><path d="M358.7 178L238.3 267L333.7 395Z" fill="#f0f0f0" stroke="#f0f0f0"></path><path d="M159.3 215L238.3 267L358.7 178Z" fill="#f4f4f4" stroke="#f4f4f4"></path><path d="M150.3 543L122.3 771L489.7 765Z" fill="#f0f0f0" stroke="#f0f0f0"></path><path d="M1651.7 597L1752.7 327L1466.3 303Z" fill="#f6f6f6" stroke="#f6f6f6"></path><path d="M1641.7 242L1659.7 0L1425.3 0Z" fill="#fbfbfb" stroke="#fbfbfb"></path><path d="M1920 621L1752.7 327L1651.7 597Z" fill="#eeeeee" stroke="#eeeeee"></path><path d="M1920 679L1651.7 597L1646.7 720Z" fill="#f3f3f3" stroke="#f3f3f3"></path><path d="M122.3 771L127.3 964L489.7 765Z" fill="#fafafa" stroke="#fafafa"></path><path d="M238.3 267L0 446L150.3 543Z" fill="#f4f4f4" stroke="#f4f4f4"></path><path d="M150.3 543L0 641L122.3 771Z" fill="#eeeeee" stroke="#eeeeee"></path><path d="M304.3 0L159.3 215L358.7 178Z" fill="#f3f3f3" stroke="#f3f3f3"></path><path d="M506.7 0L304.3 0L358.7 178Z" fill="#fdfdfd" stroke="#fdfdfd"></path><path d="M1533.3 1080L1796.7 1080L1619.7 908Z" fill="#f8f8f8" stroke="#f8f8f8"></path><path d="M1920 908L1920 679L1646.7 720Z" fill="#eeeeee" stroke="#eeeeee"></path><path d="M0 545L0 641L150.3 543Z" fill="#f8f8f8" stroke="#f8f8f8"></path><path d="M122.3 771L0 879L127.3 964Z" fill="#fafafa" stroke="#fafafa"></path><path d="M1920 908L1646.7 720L1619.7 908Z" fill="#eeeeee" stroke="#eeeeee"></path><path d="M1920 679L1920 621L1651.7 597Z" fill="#fafafa" stroke="#fafafa"></path><path d="M0 446L0 545L150.3 543Z" fill="#f6f6f6" stroke="#f6f6f6"></path><path d="M1920 247L1641.7 242L1752.7 327Z" fill="#f6f6f6" stroke="#f6f6f6"></path><path d="M1920 247L1659.7 0L1641.7 242Z" fill="#eeeeee" stroke="#eeeeee"></path><path d="M0 641L0 879L122.3 771Z" fill="#eeeeee" stroke="#eeeeee"></path><path d="M127.3 964L0 1080L272.3 1080Z" fill="#f4f4f4" stroke="#f4f4f4"></path><path d="M0 129L0 446L159.3 215Z" fill="#f6f6f6" stroke="#f6f6f6"></path><path d="M159.3 215L0 446L238.3 267Z" fill="#f0f0f0" stroke="#f0f0f0"></path><path d="M1796.7 1080L1920 908L1619.7 908Z" fill="#eeeeee" stroke="#eeeeee"></path><path d="M1920 621L1920 368L1752.7 327Z" fill="#f4f4f4" stroke="#f4f4f4"></path><path d="M0 879L0 1080L127.3 964Z" fill="#f3f3f3" stroke="#f3f3f3"></path><path d="M1796.7 1080L1920 1080L1920 908Z" fill="#f1f1f1" stroke="#f1f1f1"></path><path d="M1920 368L1920 247L1752.7 327Z" fill="#ffffff" stroke="#ffffff"></path><path d="M0 0L0 129L159.3 215Z" fill="#f8f8f8" stroke="#f8f8f8"></path><path d="M304.3 0L0 0L159.3 215Z" fill="#eeeeee" stroke="#eeeeee"></path><path d="M1920 247L1920 0L1659.7 0Z" fill="#fbfbfb" stroke="#fbfbfb"></path></g></svg>